<svg xmlns="http://www.w3.org/2000/svg" viewBox="0 0 300 400" width="300" height="400">
  <!-- Background -->
  <rect width="300" height="400" fill="#f8f9fa"/>
  <rect width="300" height="40" fill="#e67e22" opacity="0.2"/>
  
  <!-- Title -->
  <text x="150" y="25" font-family="Arial" font-size="18" font-weight="bold" fill="#e67e22" text-anchor="middle">Form</text>
  
  <!-- Movement path -->
  <path d="M 80 180 L 120 140 L 180 140 L 220 180 L 180 220 L 120 220 Z" 
        stroke="#e67e22" stroke-width="3" fill="none" stroke-dasharray="10,5" opacity="0.5"/>
  
  <!-- Multiple position silhouettes (form sequence) -->
  <g opacity="0.3">
    <circle cx="80" cy="180" r="8" fill="#2c3e50"/>
    <line x1="80" y1="188" x2="80" y2="210" stroke="#2c3e50" stroke-width="2"/>
  </g>
  
  <g opacity="0.5">
    <circle cx="120" cy="140" r="8" fill="#2c3e50"/>
    <line x1="120" y1="148" x2="120" y2="170" stroke="#2c3e50" stroke-width="2"/>
  </g>
  
  <!-- Main figure (current position) -->
  <g id="figure">
    <!-- Head -->
    <circle cx="150" cy="120" r="20" fill="none" stroke="#e67e22" stroke-width="3"/>
    
    <!-- Body -->
    <line x1="150" y1="140" x2="150" y2="220" stroke="#e67e22" stroke-width="4" stroke-linecap="round"/>
    
    <!-- Arms in form position -->
    <line x1="150" y1="160" x2="110" y2="140" stroke="#e67e22" stroke-width="3" stroke-linecap="round"/>
    <line x1="150" y1="160" x2="190" y2="180" stroke="#e67e22" stroke-width="3" stroke-linecap="round"/>
    
    <!-- Legs in form stance -->
    <line x1="150" y1="220" x2="130" y2="280" stroke="#e67e22" stroke-width="4" stroke-linecap="round"/>
    <line x1="130" y1="280" x2="120" y2="320" stroke="#e67e22" stroke-width="4" stroke-linecap="round"/>
    <line x1="150" y1="220" x2="170" y2="280" stroke="#e67e22" stroke-width="4" stroke-linecap="round"/>
    <line x1="170" y1="280" x2="180" y2="320" stroke="#e67e22" stroke-width="4" stroke-linecap="round"/>
  </g>
  
  <!-- Sequence indicators -->
  <circle cx="80" cy="360" r="6" fill="#e67e22"/>
  <circle cx="120" cy="360" r="6" fill="#e67e22"/>
  <circle cx="150" cy="360" r="8" fill="#e67e22" stroke="#e67e22" stroke-width="2"/>
  <circle cx="180" cy="360" r="6" fill="#e67e22" opacity="0.5"/>
  <circle cx="220" cy="360" r="6" fill="#e67e22" opacity="0.3"/>
  
  <!-- Label -->
  <rect x="50" y="370" width="200" height="25" fill="white" stroke="#e67e22" stroke-width="2" rx="5"/>
  <text x="150" y="388" font-family="Arial" font-size="14" fill="#e67e22" text-anchor="middle">Poomsae/Form</text>
</svg>