<svg xmlns="http://www.w3.org/2000/svg" viewBox="0 0 300 400" width="300" height="400">
  <!-- Background -->
  <rect width="300" height="400" fill="#f8f9fa"/>
  <rect width="300" height="40" fill="#FF6B6B" opacity="0.2"/>
  
  <!-- Title -->
  <text x="150" y="25" font-family="Arial" font-size="18" font-weight="bold" fill="#FF6B6B" text-anchor="middle">Kick</text>
  
  <!-- Motion lines -->
  <path d="M 200 180 Q 220 160 240 140" stroke="#FFD93D" stroke-width="3" fill="none" stroke-linecap="round" opacity="0.6"/>
  <path d="M 205 190 Q 230 170 250 150" stroke="#FFD93D" stroke-width="2" fill="none" stroke-linecap="round" opacity="0.4"/>
  
  <!-- Stick figure kicking -->
  <g id="figure">
    <!-- Head -->
    <circle cx="120" cy="100" r="20" fill="none" stroke="#2c3e50" stroke-width="3"/>
    
    <!-- Body (leaning) -->
    <line x1="120" y1="120" x2="110" y2="200" stroke="#2c3e50" stroke-width="4" stroke-linecap="round"/>
    
    <!-- Arms (balance) -->
    <line x1="110" y1="160" x2="60" y2="140" stroke="#2c3e50" stroke-width="3" stroke-linecap="round"/>
    <line x1="110" y1="160" x2="90" y2="190" stroke="#2c3e50" stroke-width="3" stroke-linecap="round"/>
    
    <!-- Standing leg -->
    <line x1="110" y1="200" x2="100" y2="280" stroke="#2c3e50" stroke-width="4" stroke-linecap="round"/>
    <line x1="100" y1="280" x2="90" y2="320" stroke="#2c3e50" stroke-width="4" stroke-linecap="round"/>
    
    <!-- Kicking leg (extended) -->
    <line x1="110" y1="200" x2="180" y2="160" stroke="#FF6B6B" stroke-width="5" stroke-linecap="round"/>
    <line x1="180" y1="160" x2="240" y2="140" stroke="#FF6B6B" stroke-width="5" stroke-linecap="round"/>
    
    <!-- Impact marker -->
    <circle cx="240" cy="140" r="15" fill="none" stroke="#FFD93D" stroke-width="3"/>
    <circle cx="240" cy="140" r="20" fill="none" stroke="#FFD93D" stroke-width="2" opacity="0.5"/>
  </g>
  
  <!-- Label -->
  <rect x="50" y="370" width="200" height="25" fill="white" stroke="#FF6B6B" stroke-width="2" rx="5"/>
  <text x="150" y="388" font-family="Arial" font-size="14" fill="#FF6B6B" text-anchor="middle">Kick</text>
</svg>