<svg xmlns="http://www.w3.org/2000/svg" viewBox="0 0 300 400" width="300" height="400">
  <!-- Background -->
  <rect width="300" height="400" fill="#f8f9fa"/>
  <rect width="300" height="40" fill="#9b59b6" opacity="0.2"/>
  
  <!-- Title -->
  <text x="150" y="25" font-family="Arial" font-size="18" font-weight="bold" fill="#9b59b6" text-anchor="middle">Strike</text>
  
  <!-- Motion lines -->
  <path d="M 100 150 L 220 160" stroke="#FFD93D" stroke-width="3" fill="none" stroke-linecap="round" opacity="0.6"/>
  <path d="M 100 160 L 230 170" stroke="#FFD93D" stroke-width="2" fill="none" stroke-linecap="round" opacity="0.4"/>
  
  <!-- Stick figure striking -->
  <g id="figure">
    <!-- Head -->
    <circle cx="120" cy="100" r="20" fill="none" stroke="#2c3e50" stroke-width="3"/>
    
    <!-- Body (twisted) -->
    <line x1="120" y1="120" x2="130" y2="200" stroke="#2c3e50" stroke-width="4" stroke-linecap="round"/>
    
    <!-- Striking arm (extended) -->
    <line x1="130" y1="150" x2="180" y2="160" stroke="#9b59b6" stroke-width="5" stroke-linecap="round"/>
    <line x1="180" y1="160" x2="240" y2="165" stroke="#9b59b6" stroke-width="5" stroke-linecap="round"/>
    
    <!-- Fist -->
    <circle cx="245" cy="165" r="8" fill="#9b59b6"/>
    
    <!-- Other arm (chambered) -->
    <line x1="130" y1="150" x2="100" y2="170" stroke="#2c3e50" stroke-width="3" stroke-linecap="round"/>
    <line x1="100" y1="170" x2="80" y2="180" stroke="#2c3e50" stroke-width="3" stroke-linecap="round"/>
    
    <!-- Legs (stable stance) -->
    <line x1="130" y1="200" x2="110" y2="280" stroke="#2c3e50" stroke-width="4" stroke-linecap="round"/>
    <line x1="110" y1="280" x2="100" y2="320" stroke="#2c3e50" stroke-width="4" stroke-linecap="round"/>
    <line x1="130" y1="200" x2="150" y2="280" stroke="#2c3e50" stroke-width="4" stroke-linecap="round"/>
    <line x1="150" y1="280" x2="160" y2="320" stroke="#2c3e50" stroke-width="4" stroke-linecap="round"/>
    
    <!-- Impact effect -->
    <circle cx="245" cy="165" r="12" fill="none" stroke="#FFD93D" stroke-width="3"/>
    <circle cx="245" cy="165" r="18" fill="none" stroke="#FFD93D" stroke-width="2" opacity="0.5"/>
    <line x1="255" y1="165" x2="270" y2="165" stroke="#FFD93D" stroke-width="2"/>
    <line x1="250" y1="155" x2="260" y2="145" stroke="#FFD93D" stroke-width="2"/>
    <line x1="250" y1="175" x2="260" y2="185" stroke="#FFD93D" stroke-width="2"/>
  </g>
  
  <!-- Label -->
  <rect x="50" y="370" width="200" height="25" fill="white" stroke="#9b59b6" stroke-width="2" rx="5"/>
  <text x="150" y="388" font-family="Arial" font-size="14" fill="#9b59b6" text-anchor="middle">Strike</text>
</svg>