<svg xmlns="http://www.w3.org/2000/svg" viewBox="0 0 300 400" width="300" height="400">
  <!-- Background -->
  <rect width="300" height="400" fill="#f8f9fa"/>
  <rect width="300" height="40" fill="#4ECDC4" opacity="0.2"/>
  
  <!-- Title -->
  <text x="150" y="25" font-family="Arial" font-size="18" font-weight="bold" fill="#4ECDC4" text-anchor="middle">Block</text>
  
  <!-- Incoming attack (blocked) -->
  <line x1="250" y1="120" x2="180" y2="140" stroke="#e74c3c" stroke-width="4" stroke-linecap="round" stroke-dasharray="8,4"/>
  <path d="M 260 110 L 250 120 L 260 130" stroke="#e74c3c" stroke-width="3" fill="none"/>
  
  <!-- Shield/block effect -->
  <ellipse cx="170" cy="140" rx="30" ry="40" fill="#4ECDC4" opacity="0.2" stroke="#4ECDC4" stroke-width="2"/>
  
  <!-- Stick figure blocking -->
  <g id="figure">
    <!-- Head -->
    <circle cx="150" cy="90" r="20" fill="none" stroke="#2c3e50" stroke-width="3"/>
    
    <!-- Body -->
    <line x1="150" y1="110" x2="150" y2="210" stroke="#2c3e50" stroke-width="4" stroke-linecap="round"/>
    
    <!-- Blocking arm (raised) -->
    <line x1="150" y1="130" x2="170" y2="110" stroke="#4ECDC4" stroke-width="5" stroke-linecap="round"/>
    <line x1="170" y1="110" x2="180" y2="140" stroke="#4ECDC4" stroke-width="5" stroke-linecap="round"/>
    
    <!-- Other arm -->
    <line x1="150" y1="130" x2="120" y2="160" stroke="#2c3e50" stroke-width="3" stroke-linecap="round"/>
    
    <!-- Legs -->
    <line x1="150" y1="210" x2="130" y2="280" stroke="#2c3e50" stroke-width="4" stroke-linecap="round"/>
    <line x1="130" y1="280" x2="120" y2="320" stroke="#2c3e50" stroke-width="4" stroke-linecap="round"/>
    <line x1="150" y1="210" x2="170" y2="280" stroke="#2c3e50" stroke-width="4" stroke-linecap="round"/>
    <line x1="170" y1="280" x2="180" y2="320" stroke="#2c3e50" stroke-width="4" stroke-linecap="round"/>
  </g>
  
  <!-- Impact stars -->
  <text x="190" y="135" font-size="24" fill="#FFD93D">⭐</text>
  <text x="175" y="160" font-size="18" fill="#FFD93D">✨</text>
  
  <!-- Label -->
  <rect x="50" y="370" width="200" height="25" fill="white" stroke="#4ECDC4" stroke-width="2" rx="5"/>
  <text x="150" y="388" font-family="Arial" font-size="14" fill="#4ECDC4" text-anchor="middle">Block</text>
</svg>